<?xml version="1.0" encoding="UTF-8" standalone="no"?>
<svg xmlns:svg="http://www.w3.org/2000/svg"
     xmlns="http://www.w3.org/2000/svg" version="1.1"
     width="360.0" height="185.0">
    <!-- Created with parliamentarch (https://github.com/Gouvernathor/parliamentarch/) -->
    <text x="180.0" y="175.0"
          style="font-size:36px;font-weight:bold;text-align:center;text-anchor:middle;font-family:sans-serif">500</text>
    <g style="fill:#ff0000"
       id="0-Partido-del-Trabajo">
        <title>Partido del Trabajo</title>
        <circle cx="9.22" cy="175.83" r="3.33"/>
        <circle cx="17.55" cy="175.83" r="3.33"/>
        <circle cx="25.89" cy="175.83" r="3.33"/>
        <circle cx="34.23" cy="175.83" r="3.33"/>
        <circle cx="42.56" cy="175.83" r="3.33"/>
        <circle cx="50.90" cy="175.83" r="3.33"/>
        <circle cx="59.24" cy="175.83" r="3.33"/>
        <circle cx="67.58" cy="175.83" r="3.33"/>
        <circle cx="75.92" cy="175.83" r="3.33"/>
        <circle cx="84.26" cy="175.83" r="3.33"/>
        <circle cx="92.60" cy="175.83" r="3.33"/>
        <circle cx="9.67" cy="166.89" r="3.33"/>
        <circle cx="18.02" cy="167.04" r="3.33"/>
        <circle cx="26.38" cy="167.03" r="3.33"/>
        <circle cx="34.76" cy="166.85" r="3.33"/>
        <circle cx="43.13" cy="166.84" r="3.33"/>
        <circle cx="51.51" cy="166.82" r="3.33"/>
        <circle cx="59.89" cy="166.80" r="3.33"/>
        <circle cx="68.25" cy="167.01" r="3.33"/>
        <circle cx="76.65" cy="167.01" r="3.33"/>
        <circle cx="10.59" cy="157.98" r="3.33"/>
        <circle cx="18.96" cy="158.28" r="3.33"/>
        <circle cx="85.05" cy="167.00" r="3.33"/>
        <circle cx="27.37" cy="158.28" r="3.33"/>
        <circle cx="35.85" cy="157.93" r="3.33"/>
        <circle cx="93.52" cy="166.69" r="3.33"/>
        <circle cx="44.29" cy="157.90" r="3.33"/>
        <circle cx="52.74" cy="157.88" r="3.33"/>
        <circle cx="11.98" cy="149.14" r="3.33"/>
        <circle cx="61.21" cy="157.85" r="3.33"/>
        <circle cx="20.37" cy="149.58" r="3.33"/>
        <circle cx="69.62" cy="158.27" r="3.33"/>
        <circle cx="28.86" cy="149.59" r="3.33"/>
        <circle cx="78.12" cy="158.28" r="3.33"/>
        <circle cx="37.48" cy="149.08" r="3.33"/>
        <circle cx="46.03" cy="149.06" r="3.33"/>
        <circle cx="86.66" cy="158.28" r="3.33"/>
        <circle cx="13.83" cy="140.38" r="3.33"/>
        <circle cx="54.60" cy="149.04" r="3.33"/>
        <circle cx="22.25" cy="140.98" r="3.33"/>
        <circle cx="30.85" cy="141.00" r="3.33"/>
        <circle cx="95.39" cy="157.70" r="3.33"/>
        <circle cx="63.21" cy="149.02" r="3.33"/>
        <circle cx="71.67" cy="149.67" r="3.33"/>
        <circle cx="39.66" cy="140.35" r="3.33"/>
        <circle cx="16.13" cy="131.72" r="3.33"/>
        <circle cx="48.34" cy="140.35" r="3.33"/>
        <circle cx="80.34" cy="149.70" r="3.33"/>
        <circle cx="24.60" cy="132.49" r="3.33"/>
        <circle cx="57.07" cy="140.35" r="3.33"/>
        <circle cx="33.32" cy="132.54" r="3.33"/>
    </g>
    <g style="fill:#b5261e"
       id="1-Morena">
        <title>Morena</title>
        <circle cx="89.07" cy="149.75" r="3.33"/>
        <circle cx="65.85" cy="140.36" r="3.33"/>
        <circle cx="42.37" cy="131.78" r="3.33"/>
        <circle cx="18.88" cy="123.20" r="3.33"/>
        <circle cx="27.40" cy="124.14" r="3.33"/>
        <circle cx="74.38" cy="141.25" r="3.33"/>
        <circle cx="51.22" cy="131.81" r="3.33"/>
        <circle cx="98.19" cy="148.95" r="3.33"/>
        <circle cx="36.27" cy="124.24" r="3.33"/>
        <circle cx="83.27" cy="141.34" r="3.33"/>
        <circle cx="60.14" cy="131.86" r="3.33"/>
        <circle cx="22.08" cy="114.84" r="3.33"/>
        <circle cx="45.61" cy="123.38" r="3.33"/>
        <circle cx="30.66" cy="115.95" r="3.33"/>
        <circle cx="69.14" cy="131.92" r="3.33"/>
        <circle cx="92.25" cy="141.47" r="3.33"/>
        <circle cx="54.65" cy="123.48" r="3.33"/>
        <circle cx="39.69" cy="116.12" r="3.33"/>
        <circle cx="77.76" cy="133.07" r="3.33"/>
        <circle cx="25.71" cy="106.66" r="3.33"/>
        <circle cx="63.80" cy="123.60" r="3.33"/>
        <circle cx="34.35" cy="107.95" r="3.33"/>
        <circle cx="49.35" cy="115.21" r="3.33"/>
        <circle cx="86.90" cy="133.27" r="3.33"/>
        <circle cx="101.90" cy="140.54" r="3.33"/>
        <circle cx="73.05" cy="123.76" r="3.33"/>
        <circle cx="43.57" cy="108.20" r="3.33"/>
        <circle cx="58.63" cy="115.39" r="3.33"/>
        <circle cx="29.77" cy="98.67" r="3.33"/>
        <circle cx="96.19" cy="133.53" r="3.33"/>
        <circle cx="81.76" cy="125.18" r="3.33"/>
        <circle cx="38.46" cy="100.16" r="3.33"/>
        <circle cx="68.02" cy="115.62" r="3.33"/>
        <circle cx="53.59" cy="107.27" r="3.33"/>
        <circle cx="47.90" cy="100.52" r="3.33"/>
        <circle cx="34.24" cy="90.91" r="3.33"/>
        <circle cx="91.21" cy="125.53" r="3.33"/>
        <circle cx="63.12" cy="107.58" r="3.33"/>
        <circle cx="77.56" cy="115.91" r="3.33"/>
        <circle cx="43.00" cy="92.61" r="3.33"/>
        <circle cx="106.47" cy="132.57" r="3.33"/>
        <circle cx="58.32" cy="99.62" r="3.33"/>
        <circle cx="86.37" cy="117.63" r="3.33"/>
        <circle cx="72.79" cy="107.95" r="3.33"/>
        <circle cx="52.66" cy="93.10" r="3.33"/>
        <circle cx="100.84" cy="125.98" r="3.33"/>
        <circle cx="39.10" cy="83.40" r="3.33"/>
        <circle cx="68.11" cy="100.08" r="3.33"/>
        <circle cx="47.94" cy="85.32" r="3.33"/>
        <circle cx="82.65" cy="108.42" r="3.33"/>
        <circle cx="96.16" cy="118.18" r="3.33"/>
        <circle cx="63.51" cy="92.27" r="3.33"/>
        <circle cx="44.36" cy="76.15" r="3.33"/>
        <circle cx="57.83" cy="85.97" r="3.33"/>
        <circle cx="78.09" cy="100.64" r="3.33"/>
        <circle cx="91.56" cy="110.47" r="3.33"/>
        <circle cx="53.26" cy="78.30" r="3.33"/>
        <circle cx="111.85" cy="125.12" r="3.33"/>
        <circle cx="73.59" cy="92.92" r="3.33"/>
        <circle cx="106.18" cy="118.89" r="3.33"/>
        <circle cx="49.99" cy="69.18" r="3.33"/>
        <circle cx="69.14" cy="85.26" r="3.33"/>
        <circle cx="88.28" cy="101.33" r="3.33"/>
        <circle cx="63.40" cy="79.14" r="3.33"/>
        <circle cx="101.71" cy="111.29" r="3.33"/>
        <circle cx="58.96" cy="71.58" r="3.33"/>
        <circle cx="83.89" cy="93.71" r="3.33"/>
        <circle cx="97.30" cy="103.73" r="3.33"/>
        <circle cx="79.52" cy="86.14" r="3.33"/>
        <circle cx="55.97" cy="62.52" r="3.33"/>
        <circle cx="75.19" cy="78.60" r="3.33"/>
        <circle cx="69.36" cy="72.64" r="3.33"/>
        <circle cx="117.98" cy="118.28" r="3.33"/>
        <circle cx="94.43" cy="94.69" r="3.33"/>
        <circle cx="112.14" cy="112.33" r="3.33"/>
        <circle cx="65.01" cy="65.18" r="3.33"/>
        <circle cx="90.15" cy="87.20" r="3.33"/>
        <circle cx="107.83" cy="104.88" r="3.33"/>
        <circle cx="62.30" cy="56.19" r="3.33"/>
        <circle cx="85.89" cy="79.75" r="3.33"/>
        <circle cx="103.55" cy="97.47" r="3.33"/>
        <circle cx="75.67" cy="66.50" r="3.33"/>
        <circle cx="81.64" cy="72.33" r="3.33"/>
        <circle cx="71.40" cy="59.12" r="3.33"/>
        <circle cx="101.06" cy="88.52" r="3.33"/>
        <circle cx="68.95" cy="50.19" r="3.33"/>
        <circle cx="96.85" cy="81.15" r="3.33"/>
        <circle cx="118.69" cy="106.35" r="3.33"/>
        <circle cx="92.66" cy="73.81" r="3.33"/>
        <circle cx="82.33" cy="60.72" r="3.33"/>
        <circle cx="124.79" cy="112.12" r="3.33"/>
        <circle cx="114.47" cy="99.03" r="3.33"/>
        <circle cx="88.46" cy="66.47" r="3.33"/>
        <circle cx="78.11" cy="53.41" r="3.33"/>
        <circle cx="110.27" cy="91.72" r="3.33"/>
        <circle cx="75.90" cy="44.55" r="3.33"/>
        <circle cx="108.13" cy="82.86" r="3.33"/>
        <circle cx="103.96" cy="75.58" r="3.33"/>
        <circle cx="89.31" cy="55.33" r="3.33"/>
        <circle cx="85.12" cy="48.07" r="3.33"/>
        <circle cx="99.80" cy="68.31" r="3.33"/>
        <circle cx="95.64" cy="61.05" r="3.33"/>
        <circle cx="83.14" cy="39.28" r="3.33"/>
        <circle cx="125.76" cy="101.00" r="3.33"/>
        <circle cx="121.59" cy="93.75" r="3.33"/>
        <circle cx="117.42" cy="86.51" r="3.33"/>
        <circle cx="132.21" cy="106.70" r="3.33"/>
        <circle cx="96.58" cy="50.35" r="3.33"/>
        <circle cx="92.41" cy="43.13" r="3.33"/>
        <circle cx="115.60" cy="77.76" r="3.33"/>
        <circle cx="111.45" cy="70.53" r="3.33"/>
        <circle cx="107.29" cy="63.30" r="3.33"/>
        <circle cx="103.13" cy="56.07" r="3.33"/>
        <circle cx="90.65" cy="34.40" r="3.33"/>
        <circle cx="99.96" cy="38.58" r="3.33"/>
        <circle cx="104.12" cy="45.80" r="3.33"/>
        <circle cx="124.96" cy="81.88" r="3.33"/>
        <circle cx="129.12" cy="89.10" r="3.33"/>
        <circle cx="133.29" cy="96.32" r="3.33"/>
        <circle cx="98.40" cy="29.92" r="3.33"/>
        <circle cx="110.92" cy="51.57" r="3.33"/>
        <circle cx="115.09" cy="58.79" r="3.33"/>
        <circle cx="119.26" cy="66.00" r="3.33"/>
        <circle cx="123.44" cy="73.22" r="3.33"/>
        <circle cx="140.16" cy="102.10" r="3.33"/>
        <circle cx="107.74" cy="34.45" r="3.33"/>
        <circle cx="111.92" cy="41.68" r="3.33"/>
        <circle cx="106.37" cy="25.85" r="3.33"/>
        <circle cx="132.84" cy="77.86" r="3.33"/>
        <circle cx="118.96" cy="47.55" r="3.33"/>
        <circle cx="123.17" cy="54.79" r="3.33"/>
        <circle cx="137.03" cy="85.11" r="3.33"/>
        <circle cx="127.38" cy="62.04" r="3.33"/>
        <circle cx="141.23" cy="92.36" r="3.33"/>
        <circle cx="131.59" cy="69.29" r="3.33"/>
        <circle cx="115.73" cy="30.75" r="3.33"/>
        <circle cx="119.93" cy="38.02" r="3.33"/>
        <circle cx="114.55" cy="22.20" r="3.33"/>
        <circle cx="127.25" cy="44.04" r="3.33"/>
        <circle cx="148.55" cy="98.35" r="3.33"/>
        <circle cx="131.49" cy="51.34" r="3.33"/>
        <circle cx="141.01" cy="74.47" r="3.33"/>
        <circle cx="123.91" cy="27.49" r="3.33"/>
        <circle cx="135.75" cy="58.65" r="3.33"/>
        <circle cx="128.14" cy="34.82" r="3.33"/>
        <circle cx="122.91" cy="18.99" r="3.33"/>
        <circle cx="145.24" cy="81.80" r="3.33"/>
        <circle cx="140.02" cy="65.97" r="3.33"/>
        <circle cx="149.49" cy="89.15" r="3.33"/>
        <circle cx="135.73" cy="41.05" r="3.33"/>
        <circle cx="132.26" cy="24.67" r="3.33"/>
        <circle cx="140.02" cy="48.44" r="3.33"/>
        <circle cx="131.43" cy="16.22" r="3.33"/>
        <circle cx="136.52" cy="32.09" r="3.33"/>
        <circle cx="144.34" cy="55.85" r="3.33"/>
        <circle cx="149.42" cy="71.74" r="3.33"/>
        <circle cx="157.28" cy="95.50" r="3.33"/>
        <circle cx="148.67" cy="63.30" r="3.33"/>
        <circle cx="153.71" cy="79.21" r="3.33"/>
        <circle cx="144.38" cy="38.58" r="3.33"/>
        <circle cx="140.75" cy="22.31" r="3.33"/>
        <circle cx="140.07" cy="13.90" r="3.33"/>
        <circle cx="158.02" cy="86.72" r="3.33"/>
        <circle cx="148.73" cy="46.10" r="3.33"/>
        <circle cx="145.05" cy="29.85" r="3.33"/>
        <circle cx="153.10" cy="53.67" r="3.33"/>
        <circle cx="158.02" cy="69.67" r="3.33"/>
        <circle cx="149.35" cy="20.42" r="3.33"/>
        <circle cx="157.49" cy="61.28" r="3.33"/>
        <circle cx="153.16" cy="36.66" r="3.33"/>
        <circle cx="148.83" cy="12.03" r="3.33"/>
        <circle cx="153.69" cy="28.10" r="3.33"/>
        <circle cx="162.37" cy="77.34" r="3.33"/>
        <circle cx="157.57" cy="44.34" r="3.33"/>
        <circle cx="166.27" cy="93.58" r="3.33"/>
        <circle cx="161.99" cy="52.09" r="3.33"/>
        <circle cx="166.74" cy="85.09" r="3.33"/>
        <circle cx="158.04" cy="18.99" r="3.33"/>
        <circle cx="157.68" cy="10.63" r="3.33"/>
        <circle cx="162.05" cy="35.28" r="3.33"/>
        <circle cx="166.76" cy="68.28" r="3.33"/>
        <circle cx="162.41" cy="26.84" r="3.33"/>
        <circle cx="166.45" cy="59.93" r="3.33"/>
        <circle cx="166.50" cy="43.16" r="3.33"/>
        <circle cx="171.15" cy="76.21" r="3.33"/>
        <circle cx="166.80" cy="18.04" r="3.33"/>
        <circle cx="166.58" cy="9.69" r="3.33"/>
        <circle cx="170.97" cy="51.15" r="3.33"/>
        <circle cx="171.01" cy="34.44" r="3.33"/>
        <circle cx="171.19" cy="26.09" r="3.33"/>
        <circle cx="175.41" cy="92.62" r="3.33"/>
        <circle cx="175.57" cy="84.27" r="3.33"/>
        <circle cx="175.58" cy="67.59" r="3.33"/>
        <circle cx="175.47" cy="59.25" r="3.33"/>
        <circle cx="175.49" cy="42.57" r="3.33"/>
        <circle cx="175.60" cy="17.56" r="3.33"/>
        <circle cx="175.52" cy="9.23" r="3.33"/>
        <circle cx="180.00" cy="50.83" r="3.33"/>
        <circle cx="180.00" cy="75.83" r="3.33"/>
        <circle cx="180.00" cy="34.17" r="3.33"/>
        <circle cx="180.00" cy="25.83" r="3.33"/>
        <circle cx="184.48" cy="9.23" r="3.33"/>
        <circle cx="184.40" cy="17.56" r="3.33"/>
        <circle cx="184.51" cy="42.57" r="3.33"/>
        <circle cx="184.53" cy="59.25" r="3.33"/>
        <circle cx="184.42" cy="67.59" r="3.33"/>
        <circle cx="184.43" cy="84.27" r="3.33"/>
        <circle cx="184.59" cy="92.62" r="3.33"/>
        <circle cx="188.81" cy="26.09" r="3.33"/>
        <circle cx="188.99" cy="34.44" r="3.33"/>
        <circle cx="189.03" cy="51.15" r="3.33"/>
        <circle cx="193.42" cy="9.69" r="3.33"/>
        <circle cx="193.20" cy="18.04" r="3.33"/>
        <circle cx="188.85" cy="76.21" r="3.33"/>
        <circle cx="193.50" cy="43.16" r="3.33"/>
        <circle cx="193.55" cy="59.93" r="3.33"/>
        <circle cx="197.59" cy="26.84" r="3.33"/>
        <circle cx="193.24" cy="68.28" r="3.33"/>
        <circle cx="197.95" cy="35.28" r="3.33"/>
        <circle cx="202.32" cy="10.63" r="3.33"/>
        <circle cx="201.96" cy="18.99" r="3.33"/>
        <circle cx="193.26" cy="85.09" r="3.33"/>
        <circle cx="198.01" cy="52.09" r="3.33"/>
        <circle cx="193.73" cy="93.58" r="3.33"/>
        <circle cx="202.43" cy="44.34" r="3.33"/>
        <circle cx="197.63" cy="77.34" r="3.33"/>
        <circle cx="206.31" cy="28.10" r="3.33"/>
        <circle cx="211.17" cy="12.03" r="3.33"/>
        <circle cx="206.84" cy="36.66" r="3.33"/>
        <circle cx="202.51" cy="61.28" r="3.33"/>
        <circle cx="210.65" cy="20.42" r="3.33"/>
        <circle cx="201.98" cy="69.67" r="3.33"/>
        <circle cx="206.90" cy="53.67" r="3.33"/>
        <circle cx="214.95" cy="29.85" r="3.33"/>
        <circle cx="211.27" cy="46.10" r="3.33"/>
        <circle cx="201.98" cy="86.72" r="3.33"/>
    </g>
    <g style="fill:#ffd700"
       id="2-Partido-de-la-Revoluci-n-Democratica">
        <title>Partido de la Revolución Democratica</title>
        <circle cx="219.93" cy="13.90" r="3.33"/>
    </g>
    <g style="fill:#ff8c00"
       id="3-Movimiento-Ciudadano">
        <title>Movimiento Ciudadano</title>
        <circle cx="219.25" cy="22.31" r="3.33"/>
        <circle cx="215.62" cy="38.58" r="3.33"/>
        <circle cx="206.29" cy="79.21" r="3.33"/>
        <circle cx="211.33" cy="63.30" r="3.33"/>
        <circle cx="202.72" cy="95.50" r="3.33"/>
        <circle cx="210.58" cy="71.74" r="3.33"/>
        <circle cx="215.66" cy="55.85" r="3.33"/>
        <circle cx="223.48" cy="32.09" r="3.33"/>
        <circle cx="228.57" cy="16.22" r="3.33"/>
        <circle cx="219.98" cy="48.44" r="3.33"/>
        <circle cx="227.74" cy="24.67" r="3.33"/>
        <circle cx="224.27" cy="41.05" r="3.33"/>
        <circle cx="210.51" cy="89.15" r="3.33"/>
        <circle cx="219.98" cy="65.97" r="3.33"/>
        <circle cx="214.76" cy="81.80" r="3.33"/>
        <circle cx="237.09" cy="18.99" r="3.33"/>
        <circle cx="231.86" cy="34.82" r="3.33"/>
        <circle cx="224.25" cy="58.65" r="3.33"/>
        <circle cx="236.09" cy="27.49" r="3.33"/>
        <circle cx="218.99" cy="74.47" r="3.33"/>
        <circle cx="228.51" cy="51.34" r="3.33"/>
        <circle cx="211.45" cy="98.35" r="3.33"/>
        <circle cx="232.75" cy="44.04" r="3.33"/>
        <circle cx="245.45" cy="22.20" r="3.33"/>
        <circle cx="240.07" cy="38.02" r="3.33"/>
        <circle cx="244.27" cy="30.75" r="3.33"/>
        <circle cx="228.41" cy="69.29" r="3.33"/>
    </g>
    <g style="fill:#009150"
       id="4-Partido-Revolucionario-Institucional">
        <title>Partido Revolucionario Institucional</title>
        <circle cx="218.77" cy="92.36" r="3.33"/>
        <circle cx="232.62" cy="62.04" r="3.33"/>
        <circle cx="222.97" cy="85.11" r="3.33"/>
        <circle cx="236.83" cy="54.79" r="3.33"/>
        <circle cx="241.04" cy="47.55" r="3.33"/>
        <circle cx="227.16" cy="77.86" r="3.33"/>
        <circle cx="253.63" cy="25.85" r="3.33"/>
        <circle cx="248.08" cy="41.68" r="3.33"/>
        <circle cx="252.26" cy="34.45" r="3.33"/>
        <circle cx="219.84" cy="102.10" r="3.33"/>
        <circle cx="236.56" cy="73.22" r="3.33"/>
        <circle cx="240.74" cy="66.00" r="3.33"/>
        <circle cx="244.91" cy="58.79" r="3.33"/>
        <circle cx="249.08" cy="51.57" r="3.33"/>
        <circle cx="261.60" cy="29.92" r="3.33"/>
        <circle cx="226.71" cy="96.32" r="3.33"/>
        <circle cx="230.88" cy="89.10" r="3.33"/>
        <circle cx="235.04" cy="81.88" r="3.33"/>
        <circle cx="255.88" cy="45.80" r="3.33"/>
        <circle cx="260.04" cy="38.58" r="3.33"/>
        <circle cx="269.35" cy="34.40" r="3.33"/>
        <circle cx="256.87" cy="56.07" r="3.33"/>
        <circle cx="252.71" cy="63.30" r="3.33"/>
        <circle cx="248.55" cy="70.53" r="3.33"/>
        <circle cx="244.40" cy="77.76" r="3.33"/>
        <circle cx="267.59" cy="43.13" r="3.33"/>
        <circle cx="263.42" cy="50.35" r="3.33"/>
        <circle cx="227.79" cy="106.70" r="3.33"/>
        <circle cx="242.58" cy="86.51" r="3.33"/>
        <circle cx="238.41" cy="93.75" r="3.33"/>
        <circle cx="234.24" cy="101.00" r="3.33"/>
        <circle cx="276.86" cy="39.28" r="3.33"/>
        <circle cx="264.36" cy="61.05" r="3.33"/>
        <circle cx="260.20" cy="68.31" r="3.33"/>
        <circle cx="274.88" cy="48.07" r="3.33"/>
    </g>
    <g style="fill:#50b747"
       id="5-Partido-Verde-Ecologista-de-M-xico">
        <title>Partido Verde Ecologista de México</title>
        <circle cx="270.69" cy="55.33" r="3.33"/>
        <circle cx="256.04" cy="75.58" r="3.33"/>
        <circle cx="251.87" cy="82.86" r="3.33"/>
        <circle cx="284.10" cy="44.55" r="3.33"/>
        <circle cx="249.73" cy="91.72" r="3.33"/>
        <circle cx="281.89" cy="53.41" r="3.33"/>
        <circle cx="271.54" cy="66.47" r="3.33"/>
        <circle cx="245.53" cy="99.03" r="3.33"/>
        <circle cx="235.21" cy="112.12" r="3.33"/>
        <circle cx="277.67" cy="60.72" r="3.33"/>
        <circle cx="267.34" cy="73.81" r="3.33"/>
        <circle cx="241.31" cy="106.35" r="3.33"/>
        <circle cx="263.15" cy="81.15" r="3.33"/>
        <circle cx="291.05" cy="50.19" r="3.33"/>
        <circle cx="258.94" cy="88.52" r="3.33"/>
        <circle cx="288.60" cy="59.12" r="3.33"/>
        <circle cx="278.36" cy="72.33" r="3.33"/>
        <circle cx="284.33" cy="66.50" r="3.33"/>
        <circle cx="256.45" cy="97.47" r="3.33"/>
        <circle cx="274.11" cy="79.75" r="3.33"/>
        <circle cx="297.70" cy="56.19" r="3.33"/>
        <circle cx="252.17" cy="104.88" r="3.33"/>
        <circle cx="269.85" cy="87.20" r="3.33"/>
        <circle cx="294.99" cy="65.18" r="3.33"/>
        <circle cx="247.86" cy="112.33" r="3.33"/>
        <circle cx="265.57" cy="94.69" r="3.33"/>
        <circle cx="242.02" cy="118.28" r="3.33"/>
        <circle cx="290.64" cy="72.64" r="3.33"/>
        <circle cx="284.81" cy="78.60" r="3.33"/>
        <circle cx="304.03" cy="62.52" r="3.33"/>
        <circle cx="280.48" cy="86.14" r="3.33"/>
        <circle cx="262.70" cy="103.73" r="3.33"/>
        <circle cx="276.11" cy="93.71" r="3.33"/>
        <circle cx="301.04" cy="71.58" r="3.33"/>
        <circle cx="258.29" cy="111.29" r="3.33"/>
        <circle cx="296.60" cy="79.14" r="3.33"/>
        <circle cx="271.72" cy="101.33" r="3.33"/>
        <circle cx="290.86" cy="85.26" r="3.33"/>
        <circle cx="310.01" cy="69.18" r="3.33"/>
        <circle cx="253.82" cy="118.89" r="3.33"/>
        <circle cx="286.41" cy="92.92" r="3.33"/>
        <circle cx="248.15" cy="125.12" r="3.33"/>
        <circle cx="306.74" cy="78.30" r="3.33"/>
        <circle cx="268.44" cy="110.47" r="3.33"/>
        <circle cx="281.91" cy="100.64" r="3.33"/>
        <circle cx="302.17" cy="85.97" r="3.33"/>
        <circle cx="315.64" cy="76.15" r="3.33"/>
        <circle cx="296.49" cy="92.27" r="3.33"/>
        <circle cx="263.84" cy="118.18" r="3.33"/>
        <circle cx="277.35" cy="108.42" r="3.33"/>
        <circle cx="312.06" cy="85.32" r="3.33"/>
        <circle cx="291.89" cy="100.08" r="3.33"/>
        <circle cx="320.90" cy="83.40" r="3.33"/>
        <circle cx="259.16" cy="125.98" r="3.33"/>
        <circle cx="307.34" cy="93.10" r="3.33"/>
        <circle cx="287.21" cy="107.95" r="3.33"/>
        <circle cx="273.63" cy="117.63" r="3.33"/>
        <circle cx="301.68" cy="99.62" r="3.33"/>
        <circle cx="253.53" cy="132.57" r="3.33"/>
        <circle cx="317.00" cy="92.61" r="3.33"/>
        <circle cx="282.44" cy="115.91" r="3.33"/>
        <circle cx="296.88" cy="107.58" r="3.33"/>
        <circle cx="268.79" cy="125.53" r="3.33"/>
        <circle cx="325.76" cy="90.91" r="3.33"/>
        <circle cx="312.10" cy="100.52" r="3.33"/>
        <circle cx="306.41" cy="107.27" r="3.33"/>
        <circle cx="291.98" cy="115.62" r="3.33"/>
        <circle cx="321.54" cy="100.16" r="3.33"/>
        <circle cx="278.24" cy="125.18" r="3.33"/>
        <circle cx="263.81" cy="133.53" r="3.33"/>
        <circle cx="330.23" cy="98.67" r="3.33"/>
        <circle cx="301.37" cy="115.39" r="3.33"/>
        <circle cx="316.43" cy="108.20" r="3.33"/>
        <circle cx="286.95" cy="123.76" r="3.33"/>
        <circle cx="258.10" cy="140.54" r="3.33"/>
        <circle cx="273.10" cy="133.27" r="3.33"/>
        <circle cx="310.65" cy="115.21" r="3.33"/>
    </g>
    <g style="fill:#05338d"
       id="6-Partido-Acci-n-Nacional">
        <title>Partido Acción Nacional</title>
        <circle cx="325.65" cy="107.95" r="3.33"/>
        <circle cx="296.20" cy="123.60" r="3.33"/>
        <circle cx="334.29" cy="106.66" r="3.33"/>
        <circle cx="282.24" cy="133.07" r="3.33"/>
        <circle cx="320.31" cy="116.12" r="3.33"/>
        <circle cx="305.35" cy="123.48" r="3.33"/>
        <circle cx="267.75" cy="141.47" r="3.33"/>
        <circle cx="290.86" cy="131.92" r="3.33"/>
        <circle cx="329.34" cy="115.95" r="3.33"/>
        <circle cx="314.39" cy="123.38" r="3.33"/>
        <circle cx="337.92" cy="114.84" r="3.33"/>
        <circle cx="299.86" cy="131.86" r="3.33"/>
        <circle cx="276.73" cy="141.34" r="3.33"/>
        <circle cx="323.73" cy="124.24" r="3.33"/>
        <circle cx="261.81" cy="148.95" r="3.33"/>
        <circle cx="308.78" cy="131.81" r="3.33"/>
        <circle cx="285.62" cy="141.25" r="3.33"/>
        <circle cx="332.60" cy="124.14" r="3.33"/>
        <circle cx="341.12" cy="123.20" r="3.33"/>
        <circle cx="317.63" cy="131.78" r="3.33"/>
        <circle cx="294.15" cy="140.36" r="3.33"/>
        <circle cx="270.93" cy="149.75" r="3.33"/>
        <circle cx="326.68" cy="132.54" r="3.33"/>
        <circle cx="302.93" cy="140.35" r="3.33"/>
        <circle cx="335.40" cy="132.49" r="3.33"/>
        <circle cx="279.66" cy="149.70" r="3.33"/>
        <circle cx="311.66" cy="140.35" r="3.33"/>
        <circle cx="343.87" cy="131.72" r="3.33"/>
        <circle cx="320.34" cy="140.35" r="3.33"/>
        <circle cx="288.33" cy="149.67" r="3.33"/>
        <circle cx="296.79" cy="149.02" r="3.33"/>
        <circle cx="264.61" cy="157.70" r="3.33"/>
        <circle cx="329.15" cy="141.00" r="3.33"/>
        <circle cx="337.75" cy="140.98" r="3.33"/>
        <circle cx="305.40" cy="149.04" r="3.33"/>
        <circle cx="346.17" cy="140.38" r="3.33"/>
        <circle cx="273.34" cy="158.28" r="3.33"/>
        <circle cx="313.97" cy="149.06" r="3.33"/>
        <circle cx="322.52" cy="149.08" r="3.33"/>
        <circle cx="281.88" cy="158.28" r="3.33"/>
        <circle cx="331.14" cy="149.59" r="3.33"/>
        <circle cx="290.38" cy="158.27" r="3.33"/>
        <circle cx="339.63" cy="149.58" r="3.33"/>
        <circle cx="298.79" cy="157.85" r="3.33"/>
        <circle cx="348.02" cy="149.14" r="3.33"/>
        <circle cx="307.26" cy="157.88" r="3.33"/>
        <circle cx="315.71" cy="157.90" r="3.33"/>
        <circle cx="266.48" cy="166.69" r="3.33"/>
        <circle cx="324.15" cy="157.93" r="3.33"/>
        <circle cx="332.63" cy="158.28" r="3.33"/>
        <circle cx="274.95" cy="167.00" r="3.33"/>
        <circle cx="341.04" cy="158.28" r="3.33"/>
        <circle cx="349.41" cy="157.98" r="3.33"/>
        <circle cx="283.35" cy="167.01" r="3.33"/>
        <circle cx="291.75" cy="167.01" r="3.33"/>
        <circle cx="300.11" cy="166.80" r="3.33"/>
        <circle cx="308.49" cy="166.82" r="3.33"/>
        <circle cx="316.87" cy="166.84" r="3.33"/>
        <circle cx="325.24" cy="166.85" r="3.33"/>
        <circle cx="333.62" cy="167.03" r="3.33"/>
        <circle cx="341.98" cy="167.04" r="3.33"/>
        <circle cx="350.33" cy="166.89" r="3.33"/>
        <circle cx="267.40" cy="175.83" r="3.33"/>
        <circle cx="275.74" cy="175.83" r="3.33"/>
        <circle cx="284.08" cy="175.83" r="3.33"/>
        <circle cx="292.42" cy="175.83" r="3.33"/>
        <circle cx="300.76" cy="175.83" r="3.33"/>
        <circle cx="309.10" cy="175.83" r="3.33"/>
        <circle cx="317.44" cy="175.83" r="3.33"/>
        <circle cx="325.77" cy="175.83" r="3.33"/>
        <circle cx="334.11" cy="175.83" r="3.33"/>
        <circle cx="342.45" cy="175.83" r="3.33"/>
    </g>
    <g style="fill:#808080"
       id="7-Independiente">
        <title>Independiente</title>
        <circle cx="350.78" cy="175.83" r="3.33"/>
    </g>
</svg>

