<?xml version="1.0" encoding="utf-8"?>
<!-- Generator: Adobe Illustrator 25.2.1, SVG Export Plug-In . SVG Version: 6.00 Build 0)  -->
<svg version="1.1" id="Sello" xmlns="http://www.w3.org/2000/svg" xmlns:xlink="http://www.w3.org/1999/xlink" x="0px" y="0px"
	 viewBox="0 0 446.8 451" style="enable-background:new 0 0 446.8 451;" xml:space="preserve">
<style type="text/css">
	.st0{fill:#FF8400;}
</style>
<g id="sello">
	<g>
		<g>
			<g>
				<path class="st0" d="M216.8,408.3c-12-2.1-22.7,5.4-24.8,17.5c-2.1,12,5.4,22.7,17.4,24.8c12.1,2.1,22.8-5.3,24.9-17.4
					C236.4,421.1,228.9,410.5,216.8,408.3z M211.3,439.8c-5.7-1-9-6.2-8-11.9c1-5.8,5.8-9.6,11.6-8.6c5.8,1,9,6.2,8,12
					C221.9,437,217.1,440.8,211.3,439.8z"/>
			</g>
		</g>
		<g>
			<path class="st0" d="M282.1,399.1l-14.5,5c-0.5,0.2-0.8,0.7-0.6,1.2c0.2,0.5,0.7,0.8,1.2,0.6c1.7-0.6,3.5,0.1,4.3,1.7l12,34.8
				l30.1-10.4l-3.3-9.6l-19,6.5L282.1,399.1z"/>
		</g>
		<g>
			<path class="st0" d="M68.1,363.3c-4.2,3.4-8.6,3.3-11.9-0.9c-3.3-4.1-2.4-8.3,1.8-11.7l17.8-14.2l-9.5-12
				c-0.3-0.4-0.9-0.5-1.3-0.2c-0.4,0.3-0.5,0.9-0.2,1.3c1.2,1.4,1,3.4-0.2,4.7L50,342.1c-8.5,6.8-10.2,17.2-2.3,27.1
				c8,10,19.2,10.1,27,3.9l18.5-14.7l-7.3-9.2L68.1,363.3z"/>
		</g>
		<g>
			<path class="st0" d="M100.7,365.8c-0.3,0.4-0.2,1,0.2,1.3c1.6,1.1,2,3.1,1,4.7l-20.7,30.1l28,19.2l5.8-8.4l-18.7-12.9l3.4-5
				l15,10.3l5.5-7.9l-15-10.3l3.1-4.5l18.7,12.9l5.8-8.4L102,365.6C101.6,365.3,101,365.4,100.7,365.8z"/>
		</g>
		<g>
			<path class="st0" d="M308.2,389.7c0.3,0.4,0.9,0.6,1.3,0.3c1.6-1.1,3.6-0.7,4.7,0.7l20.2,30.5l28.3-18.8l-5.7-8.5l-18.9,12.6
				l-3.4-5.1l15.2-10.1l-5.3-8l-15.2,10.1l-3.1-4.6l18.9-12.6l-5.7-8.5l-31.3,20.8C308,388.7,307.9,389.3,308.2,389.7z"/>
		</g>
		<g>
			<g>
				<g>
					<path class="st0" d="M362.4,344.3c-7.7,9.5-6.2,22.4,3.4,30.2c9.5,7.7,22.4,6.2,30.1-3.3c7.7-9.6,6.3-22.5-3.2-30.2
						C383.1,333.3,370.2,334.7,362.4,344.3z M387.3,364.3c-3.7,4.5-9.8,4.9-14.3,1.2c-4.6-3.7-5.5-9.7-1.9-14.3
						c3.7-4.6,9.8-4.9,14.4-1.2C390,353.7,391,359.7,387.3,364.3z"/>
				</g>
			</g>
			<g>
				<path class="st0" d="M363.4,327.8l-1.9-1.5l-12.9,16.1c-2.1,2.6-1.7,6.5,0.9,8.6l1.9,1.5l12.9-16.1
					C366.4,333.8,366,330,363.4,327.8z"/>
			</g>
		</g>
		<g>
			<path class="st0" d="M401.2,274.8l-5.9,14.1l21.2,8.9l-28.6,8.6l-3.9,9.4l33.6,14.1l0,0c1.7,0.8,2.4,2.8,1.7,4.6
				c-0.2,0.5,0,1,0.5,1.2c0.5,0.2,1,0,1.2-0.5l5.9-14.1l-21.1-8.9l28.5-8.6l4-9.4L404.6,280c-1.7-0.8-2.4-2.8-1.7-4.5
				c0.2-0.5,0-1-0.5-1.2C402,274.1,401.4,274.3,401.2,274.8z"/>
		</g>
		<g>
			<path class="st0" d="M182.4,409.5c0.9-0.7,2.1-1,3.4-0.6c0.5,0.2,1-0.1,1.2-0.6c0.2-0.5-0.1-1-0.6-1.2l-1.6-0.5h0l-12.2-4.1
				l-19.2,25.3l0-31.8l-12.3-4.1l1.5,44.5l14.1,4.7l24.6-30.4L182.4,409.5z"/>
		</g>
		<g>
			<path class="st0" d="M24.3,331.9c-0.7-1.8,0-3.7,1.7-4.5l33.7-14l-4.5-10.9l-21.2,8.8l13.9-26.4l-5.3-12.7
				c-0.2-0.5-0.8-0.7-1.2-0.5c-0.5,0.2-0.7,0.8-0.5,1.2c0.7,1.7,0,3.6-1.5,4.5L5.5,291.5l4.5,10.9l21.2-8.8l-13.9,26.3l5.3,12.7
				c0.2,0.5,0.8,0.7,1.2,0.5S24.5,332.4,24.3,331.9z"/>
		</g>
	</g>
	<g>
		<g>
			<path class="st0" d="M23.9,218.5l1-19.5l6.9,0.4l-1.4,27.4L0,225.2l1.4-26.9l6.9,0.4l-1,19l4.5,0.2l0.8-15.2l6.9,0.4l-0.8,15.2
				L23.9,218.5z"/>
		</g>
		<g>
			<path class="st0" d="M27.1,187.4l3.4-16.9l6.8,1.4l-5,24.7l-29.8-6l1.6-7.8L27.1,187.4z"/>
		</g>
		<g>
			<path class="st0" d="M35.1,132.6l7.6-15.8l14.9,7.2l-3.4,7.1l-2-1c0.3,3.5-0.4,7.1-2.1,10.6c-4.6,9.6-13.4,14-22.1,9.8
				c-8.7-4.2-10.8-13.8-6.2-23.4c5.1-10.5,12.5-12.8,12.5-12.8l1.8,7.1c0,0-4.3,1.6-7.8,8.8c-3,6.2-2.5,10.2,3.2,13
				c5.7,2.7,9.1,0.7,12.1-5.6c1.7-3.5,2-6.4,0.9-8.7l-3.2,6.7L35.1,132.6z"/>
		</g>
		<g>
			<path class="st0" d="M68.4,84c7.7,5.8,7.9,15.6,1.5,24.1c-6.4,8.5-15.9,11.1-23.6,5.3c-7.7-5.8-7.9-15.6-1.5-24.1
				C51.2,80.7,60.7,78.2,68.4,84z M50.5,93.6c-4.2,5.5-4.5,9.5,0.6,13.4c5.1,3.8,8.8,2.4,13-3.1c4.2-5.5,4.5-9.5-0.6-13.4
				S54.7,88,50.5,93.6z"/>
		</g>
		<g>
			<path class="st0" d="M98.2,65.6c4.1,4.4,2.7,8.9-2.6,13.8L82.5,91.6L61.8,69.3l11.3-10.4c5.7-5.3,10.4-5.8,14.4-1.5
				c1.7,1.8,2.4,3.7,2.3,5.6C93.8,61.7,96.1,63.3,98.2,65.6z M82.3,62.7c-0.9-1-1.8-1.3-4.5,1.2l-5.5,5l3.1,3.4l5.9-5.5
				C83.7,64.8,83.2,63.7,82.3,62.7z M83.6,81.1l7.3-6.8c1.7-1.5,1.7-2.8,0.6-4c-1.1-1.2-2.2-1.3-5.4,1.7l-5.9,5.5L83.6,81.1z"/>
		</g>
		<g>
			<path class="st0" d="M106.6,70.3l-18-24.6l6.4-4.7l18,24.6L106.6,70.3z"/>
		</g>
		<g>
			<path class="st0" d="M119.8,52.9l16.9-9.7l3.4,6l-23.8,13.7l-15.1-26.4l23.4-13.4l3.5,6l-16.5,9.5l2.2,3.9l13.2-7.6l3.4,6
				l-13.2,7.6L119.8,52.9z"/>
		</g>
		<g>
			<path class="st0" d="M162.2,31.6l8.8,5.9l-8.7,3.2l-8-5.4l-6.8,2.5l2.7,7.4l-7.4,2.8l-10.6-28.5l17.8-6.6
				c8.6-3.2,13.4,2.7,14.7,6.2C166,23,166.1,28.2,162.2,31.6z M152.3,19.4l-10.4,3.8l3,8.2l10.9-4.1c3.3-1.2,2-4.8,1.9-5
				C157.3,21,155.8,18.1,152.3,19.4z"/>
		</g>
		<g>
			<path class="st0" d="M191.1,2.7l7.3-1.3l5.4,29.9l-7,1.3l-19-15.7l3.4,18.6l-7.3,1.3l-5.4-29.9l7-1.3l19,15.7L191.1,2.7z"/>
		</g>
		<g>
			<path class="st0" d="M243.4,16c-0.2,9.6-8,15.6-18.7,15.4c-10.7-0.2-18.3-6.4-18.2-16c0.2-9.6,8-15.6,18.7-15.4
				C235.9,0.2,243.6,6.4,243.4,16z M225.1,7.2c-6.9-0.1-10.3,2-10.4,8.3c-0.1,6.3,3.2,8.6,10.2,8.7c6.9,0.1,10.3-2,10.4-8.3
				C235.4,9.5,232.1,7.3,225.1,7.2z"/>
		</g>
		<g>
			<path class="st0" d="M293.8,27.1c-2.7,9.9-8.9,13.4-17.4,11l-16.1-4.4l8-29.4l16.1,4.4C292.9,11.2,296.5,17.3,293.8,27.1z
				 M282.6,15.5l-8.5-2.3l-4.4,16l8.5,2.3c2.8,0.8,5.3,1.6,7.6-6.5C288,16.8,285.4,16.3,282.6,15.5z"/>
		</g>
		<g>
			<path class="st0" d="M302.5,40.1l17.7,8.2l-2.9,6.3L292.4,43l12.8-27.6l24.5,11.3l-2.9,6.3l-17.3-8l-1.9,4.1l13.8,6.4l-2.9,6.3
				l-13.8-6.4L302.5,40.1z"/>
		</g>
		<g>
			<path class="st0" d="M330.1,54.7l14.4,9.5l-3.8,5.8l-21-13.8l16.7-25.4L343,35L330.1,54.7z"/>
		</g>
		<g>
			<path class="st0" d="M391.7,76.6l5.1,5.4l-22.2,20.8l-4.9-5.2l2.9-24.5l-13.8,12.9l-5.1-5.4l22.2-20.8l4.9,5.2l-2.9,24.5
				L391.7,76.6z"/>
		</g>
		<g>
			<path class="st0" d="M403.1,116.4l12-7.8l4.3,6.6l-12,7.8c-8.7,5.7-17.1,4.1-22.5-4.2s-3.4-16.6,5.3-22.3l12-7.8l4.3,6.6l-12,7.8
				c-5.6,3.7-6.6,7.1-3.6,11.8C393.9,119.6,397.4,120.1,403.1,116.4L403.1,116.4z"/>
		</g>
		<g>
			<path class="st0" d="M404.7,139.3l7.8,17.9l-6.4,2.8l-10.9-25.2l27.9-12.1l10.7,24.7l-6.4,2.8l-7.6-17.4l-4.1,1.8l6.1,13.9
				l-6.4,2.8l-6.1-13.9L404.7,139.3z"/>
		</g>
		<g>
			<path class="st0" d="M442.1,177.2l2.1,8.4l-32.2-3.4l-2.8-11.2l26.8-18.2l2.1,8.4l-19.8,13.5L442.1,177.2z"/>
		</g>
		<g>
			<path class="st0" d="M432.3,227.4c-9.6,0.7-16.2-6.6-16.9-17.3c-0.7-10.6,4.8-18.8,14.4-19.5c9.6-0.7,16.2,6.6,16.9,17.3
				C447.4,218.6,441.9,226.7,432.3,227.4z M439.6,208.4c-0.5-6.9-2.9-10.1-9.2-9.7c-6.3,0.4-8.3,4-7.8,10.9
				c0.5,6.9,2.9,10.1,9.2,9.7C438.1,218.9,440,215.4,439.6,208.4z"/>
		</g>
	</g>
	<g>
		<g>
			<g>
				<path class="st0" d="M303.7,158.7h25.5v-4.1c0-5.8-4.7-10.4-10.4-10.4h-25.4v4.2C293.3,154,298,158.7,303.7,158.7z"/>
			</g>
			<g>
				<path class="st0" d="M327.1,194.9c1.3-2.1,2-4.5,2-7v-19.3l-15.4,0c-10.7,0-19.1,4.5-26.7,14.2l-0.6,0.8h-18.9
					c-1.2-1.7-2.6-3.3-4.2-4.7l-1.6-1.4h10.9c2.2,0,4.2-0.8,5.7-2.4l6.6-6.6c1.5-1.5,2.4-3.5,2.4-5.7v-26.4c0-3.3-2.2-6.1-5.2-7.1
					l-23.1-9l5.4-7.1c1.4-1.8,0.1-4.5-2.2-4.5h-12.2l0,0h-38.2c-10.2,0-19.8,4-27.1,11.2c-7.2,7.2-11.2,16.9-11.2,27.1l0.1,59.9
					l6.9,5.3l-23.1,17l-2.3-2.3c-7.8-7.8-7.8-20.6,0-28.4l2.4-2.4c6.4-6.4,10-15,10-24.1c0-9.1-3.6-17.7-10-24.2
					c-6.5-6.5-15-10-24.1-10c0,0,0,0,0,0h-2.1h-3.9c-5.4,0-9.7,4.4-9.7,9.7v23.8h3.9c5.4,0,9.7-4.4,9.7-9.7v-9.7h2.1c0,0,0,0,0,0
					c5.4,0,10.4,2.1,14.2,5.9c3.8,3.8,5.9,8.8,5.9,14.2c0,5.4-2.1,10.4-5.9,14.2l-2.4,2.4c-13.3,13.3-13.3,35,0,48.3l5.1,5.1v30.4
					l-18.6,22c-2.6,2.8-4.1,6.4-4.1,10.2c0,3.9,1.5,7.7,4.3,10.5l0.6,0.5l32.3,25.9h50v-19.1c0-11.7-9.5-21.2-21.2-21.2h-4.1
					l11.6-7.3l42.9,47.6h57.9v-19.1c0-11.7-9.5-21.2-21.2-21.2h-11l-7.1-5.7c-0.1-0.2-0.1-0.5,0-0.7l9.8-7.6v-11.4
					c0-3.1-0.6-6-1.7-8.7l-6.3-6.8l-4.2-2.7l12.9-7.6l39.3,0c6.5,0,8.7-3.5,12.1-8.4l14.6-18.7c2-2.4,3.1-5.5,3.1-8.6v-19.6H327.1z
					 M272,200.9c0.1-1.1,0.1-2.1,0.1-3.2h21.2l4.9-6.3c4.8-6.2,9.3-8.7,15.6-8.7h1.3l0,5l-18,24.2h-29
					C268.8,209.6,271.8,203.4,272,200.9z M238.3,143.3l10.5-11.7l24.3,9.5v19.3l-3,3h-24.6l-7.2-6.3V143.3z M194.7,130.1
					c4.6-4.6,10.6-7.1,17.1-7.1h25.9l-10.5,11.7c-1.9,1.9-2.9,4.6-2.9,7.3v16.8c0,2.8,1.1,5.5,3.1,7.4l0.3,0.3l20,17.4l6.4,5.6
					c2.9,2.5,4.3,6.1,3.9,9.9c-0.4,3.8-2.5,7.1-5.8,9l-3.7,2.1l-26,16.5l-34.8-26.7l-0.1-53C187.6,140.8,190.1,134.7,194.7,130.1z
					 M264.6,315.4h15.9c3.9,0,7.2,3.2,7.2,7.2v5.1h-37.6l-37.9-42c1.2-2,1.8-4.2,1.8-6.6v-6.8l6.3-5l15,0v0h11.2l2.9,0
					c4.8,0,8.6,3.9,8.6,8.6v4.5l-5.6,4.4c-5.7,5.8-5.8,15.1,0,20.9l0.6,0.5L264.6,315.4z M327.8,214.4l-16.5,23l-41.3,0l-27.4,16
					l-7.4-0.2v0l-15.2,0c-3.1,0-6.2,1.1-8.6,3l-11.5,9.2v12.6l-26.2,16.5c-2.8,2.3-4.5,5.6-4.7,9.2c-0.2,3.6,1.2,7.1,3.8,9.6l2.1,2
					h18.5c3.9,0,7.2,3.2,7.2,7.2v5.1h-30.9l-28-22.4c-0.1-0.1-0.1-0.2-0.1-0.4c0-0.2,0.1-0.4,0.2-0.5l0.4-0.4l18.1-21.4
					c2.5-2.3,4-5.6,4-9.1v-31.6l27.9-20.4l29.5,22.7l19.1-10.9l18.1-11.1l46.4,0.2l4.9-6.4c5-6.4,9.9-6.9,16.3-6.9h1.5L327.8,214.4z
					"/>
			</g>
			<g>
				<path class="st0" d="M201.4,102.9h42.8c1.4,0,2.6-1.2,2.6-2.6V82.5c0-0.9-0.5-1.7-1.3-2.1c-0.8-0.4-1.8-0.2-2.4,0.3l-9.3,7.9
					l-9.3-7.9c-1-0.9-2.5-0.8-3.4,0.1l-9.1,8.2l-9.4-8.3c-0.7-0.6-1.6-0.7-2.4-0.4c-0.8,0.4-1.3,1.2-1.3,2.1v17.7
					C198.8,101.7,200,102.9,201.4,102.9z"/>
			</g>
		</g>
	</g>
</g>
</svg>
